<?xml version="1.0" standalone="no"?>
<!DOCTYPE svg PUBLIC "-//W3C//DTD SVG 20010904//EN"
 "http://www.w3.org/TR/2001/REC-SVG-20010904/DTD/svg10.dtd">
<svg version="1.0" xmlns="http://www.w3.org/2000/svg"
 width="505.000000pt" height="494.000000pt" viewBox="0 0 505.000000 494.000000"
 preserveAspectRatio="xMidYMid meet">

<g transform="translate(0.000000,494.000000) scale(0.100000,-0.100000)"
fill="#000000" stroke="none">
<path d="M2600 4715 c0 -8 9 -15 20 -15 11 0 20 7 20 15 0 8 -9 15 -20 15 -11
0 -20 -7 -20 -15z"/>
<path d="M2600 4565 l0 -95 -80 0 c-79 0 -80 0 -80 -25 l0 -25 183 2 c180 3
182 3 185 26 3 21 1 22 -82 22 l-86 0 0 95 c0 88 -1 95 -20 95 -19 0 -20 -7
-20 -95z"/>
<path d="M2970 4570 c0 -17 5 -21 28 -18 16 2 27 9 27 18 0 9 -11 16 -27 18
-23 3 -28 -1 -28 -18z"/>
<path d="M2483 4533 c-29 -10 -10 -23 33 -23 32 0 44 4 42 13 -5 12 -51 18
-75 10z"/>
<path d="M2685 4531 c-15 -14 1 -21 46 -21 35 0 49 4 47 12 -4 11 -83 19 -93
9z"/>
<path d="M2220 4476 c0 -15 -7 -26 -20 -29 -11 -3 -20 -12 -20 -21 0 -9 8 -16
20 -16 16 0 20 -7 20 -30 0 -20 5 -30 15 -30 10 0 15 10 15 30 0 23 4 30 20
30 13 0 20 7 20 20 0 13 -7 20 -20 20 -15 0 -20 7 -20 25 0 16 -6 25 -15 25
-9 0 -15 -9 -15 -24z"/>
<path d="M2887 4493 c-13 -12 -7 -43 8 -43 9 0 15 9 15 25 0 24 -10 32 -23 18z"/>
<path d="M2980 4475 c0 -16 6 -25 15 -25 9 0 15 9 15 25 0 16 -6 25 -15 25 -9
0 -15 -9 -15 -25z"/>
<path d="M3540 4341 c0 -137 0 -140 -22 -143 -15 -2 -24 -11 -26 -25 -3 -22 0
-23 68 -23 68 0 71 1 68 23 -2 16 -11 23 -30 25 l-28 3 0 140 c0 117 -2 139
-15 139 -13 0 -15 -22 -15 -139z"/>
<path d="M1950 4340 c0 -47 2 -50 25 -50 23 0 25 3 25 50 0 47 -2 50 -25 50
-23 0 -25 -3 -25 -50z"/>
<path d="M3238 4363 c-7 -28 -42 -31 -57 -5 -9 14 -10 11 -11 -15 0 -31 2 -33
35 -33 33 0 35 -2 37 -37 1 -37 1 -37 5 -5 5 39 16 40 48 6 l25 -27 0 25 c0
15 -9 33 -22 42 -16 12 -19 18 -10 22 19 9 44 36 38 42 -3 2 -17 -3 -30 -12
-32 -21 -44 -20 -48 2 -3 14 -5 13 -10 -5z"/>
<path d="M2412 3918 l3 -453 33 -3 c44 -4 42 -29 -3 -38 -34 -6 -35 -7 -35
-55 0 -47 -2 -49 -40 -69 -22 -11 -40 -19 -40 -18 -1 6 -7 370 -8 526 l-2 164
-30 -7 -30 -7 0 101 c0 94 -1 101 -20 101 -19 0 -20 -7 -20 -112 l0 -113 -73
-31 -72 -31 -3 -56 -3 -56 33 -3 c25 -2 33 -8 33 -23 0 -16 -6 -19 -31 -17
-19 2 -38 -3 -47 -12 -9 -9 -27 -16 -41 -16 l-26 0 0 -275 c0 -258 -1 -275
-19 -284 -22 -12 -31 -5 -31 25 0 15 -8 24 -25 28 -18 5 -25 13 -25 30 0 55
-1 56 -150 56 -116 0 -139 -2 -144 -16 -3 -9 -6 -99 -6 -201 l0 -185 23 6 c54
17 107 18 129 4 13 -8 36 -18 51 -22 20 -5 27 -12 25 -24 -3 -15 -19 -17 -116
-20 -103 -2 -112 -4 -112 -22 0 -18 9 -20 118 -22 113 -3 117 -4 120 -25 3
-23 2 -23 -117 -23 l-121 0 0 -25 0 -25 121 0 c109 0 120 -2 117 -17 -3 -16
-18 -18 -121 -21 l-117 -3 0 -180 c0 -159 2 -180 16 -177 12 2 16 17 17 64 2
70 19 96 72 114 26 9 41 8 67 -3 58 -24 68 -41 68 -113 l0 -64 45 0 45 0 0
325 c0 251 3 333 14 358 11 29 49 52 327 202 260 141 321 170 354 170 32 -1
100 -33 354 -169 281 -151 315 -172 327 -202 11 -26 14 -103 14 -359 l0 -326
43 3 42 3 3 47 3 48 28 -21 c31 -23 86 -28 120 -10 25 14 51 61 51 93 0 38
-35 85 -73 97 -37 13 -77 3 -109 -26 -17 -15 -17 -4 -15 203 l2 219 38 3 37 3
0 -125 c0 -119 1 -126 20 -126 19 0 20 7 20 125 l0 125 40 0 39 0 3 -127 3
-128 133 -3 132 -3 0 26 c0 33 37 36 42 3 2 -13 11 -24 21 -26 15 -3 17 5 17
57 0 54 2 61 20 61 16 0 19 -8 22 -57 l3 -58 35 0 35 0 0 55 0 55 93 3 92 3 0
-26 c0 -24 -2 -25 -70 -25 l-70 0 0 -29 c0 -27 4 -30 43 -36 23 -3 71 -5 107
-3 l65 3 3 183 2 182 -85 0 c-84 0 -86 1 -83 23 3 20 9 22 86 25 l83 3 -3 67
-3 67 -42 3 -43 3 0 59 0 59 -87 3 c-83 3 -88 4 -91 26 -3 20 0 22 47 22 44 0
51 3 51 20 0 19 -7 20 -110 20 -103 0 -110 -1 -110 -20 0 -17 7 -20 41 -20 36
0 40 -2 37 -22 -3 -21 -9 -23 -75 -26 l-72 -3 -3 -57 c-3 -55 -4 -57 -33 -62
-28 -5 -30 -9 -33 -53 -3 -39 -6 -47 -23 -47 -18 0 -19 9 -19 264 0 289 3 276
-61 276 l-29 0 0 215 0 215 -115 0 -115 0 0 -214 0 -215 -32 -3 -33 -3 -3
-185 c-2 -175 -3 -186 -23 -203 -21 -16 -23 -16 -40 -1 -18 16 -19 36 -19 266
0 159 -4 248 -10 248 -6 0 -10 28 -10 65 l0 65 -165 0 -165 0 0 -65 c0 -37 -4
-65 -10 -65 -6 0 -10 -91 -10 -253 0 -140 -3 -256 -6 -260 -3 -3 -20 3 -37 14
-28 16 -33 25 -37 71 l-5 53 -117 3 c-109 2 -118 4 -118 22 0 18 9 20 118 22
l117 3 3 73 3 72 -76 0 -75 0 0 30 0 30 75 0 75 0 0 30 0 29 -77 3 c-72 3 -78
5 -81 26 -3 21 -1 22 77 22 l81 0 0 245 0 245 -175 0 -175 0 0 25 0 25 173 2
c164 3 172 4 172 23 0 19 -8 20 -213 23 l-212 2 2 -452z m348 273 c0 -11 -4
-22 -9 -26 -6 -3 -66 -2 -135 1 -113 6 -126 9 -126 26 0 17 10 18 135 18 127
0 135 -1 135 -19z m-2 -113 c-3 -23 -6 -23 -133 -23 -127 0 -130 0 -133 23 -3
22 -3 22 133 22 136 0 136 0 133 -22z m2 -108 c0 -19 -7 -20 -135 -20 -128 0
-135 1 -135 20 0 19 7 20 135 20 128 0 135 -1 135 -20z m-2 -107 c3 -23 3 -23
-132 -23 -125 0 -136 1 -136 18 0 10 3 22 7 26 4 3 63 5 132 4 122 -3 126 -4
129 -25z m282 -48 c0 -25 -23 -35 -35 -15 -10 16 2 40 20 40 9 0 15 -9 15 -25z
m80 0 c0 -18 -5 -25 -20 -25 -20 0 -28 28 -13 43 15 16 33 6 33 -18z m80 0 c0
-25 -23 -35 -35 -15 -10 16 2 40 20 40 9 0 15 -9 15 -25z m330 -30 c0 -18 -5
-25 -20 -25 -15 0 -20 7 -20 25 0 18 5 25 20 25 15 0 20 -7 20 -25z m90 0 c0
-18 -5 -25 -20 -25 -15 0 -20 7 -20 25 0 18 5 25 20 25 15 0 20 -7 20 -25z
m-1012 -27 c-3 -21 -9 -23 -58 -23 -49 0 -55 2 -58 23 -3 21 0 22 58 22 58 0
61 -1 58 -22z m432 -53 c0 -18 -5 -25 -20 -25 -20 0 -28 28 -13 43 15 16 33 6
33 -18z m80 0 c0 -18 -5 -25 -20 -25 -20 0 -28 28 -13 43 15 16 33 6 33 -18z
m83 4 c3 -13 0 -22 -9 -26 -20 -7 -38 11 -31 31 9 23 34 20 40 -5z m-935 -1
c-3 -7 -15 -13 -28 -13 -13 0 -25 6 -27 13 -3 8 6 12 27 12 21 0 30 -4 28 -12z
m292 -63 c0 -22 -4 -25 -35 -25 -31 0 -35 3 -35 25 0 22 4 25 35 25 31 0 35
-3 35 -25z m-290 -50 l0 -26 -102 3 c-98 3 -103 4 -106 26 -3 22 -2 22 102 22
l106 0 0 -25z m768 -11 c-4 -25 -32 -24 -36 0 -4 21 18 40 31 27 5 -5 7 -17 5
-27z m80 0 c-4 -25 -32 -24 -36 0 -4 21 18 40 31 27 5 -5 7 -17 5 -27z m85 0
c-8 -21 -43 -18 -43 5 0 11 6 21 13 24 17 6 37 -12 30 -29z m465 9 c3 -23 2
-23 -107 -23 -101 0 -111 2 -111 18 0 10 3 22 7 26 4 4 52 5 107 4 96 -3 101
-4 104 -25z m-1103 -53 c0 -10 -12 -16 -37 -18 -33 -3 -38 0 -38 18 0 18 5 21
38 18 25 -2 37 -8 37 -18z m-297 -57 c3 -23 2 -23 -102 -23 -96 0 -106 2 -106
18 0 10 3 22 7 26 4 4 50 5 103 4 90 -3 95 -4 98 -25z m1320 5 c-3 -21 -8 -23
-68 -23 -60 0 -65 2 -68 23 -3 21 0 22 68 22 68 0 71 -1 68 -22z m80 0 c3 -14
-3 -18 -26 -18 -30 0 -51 24 -29 34 23 9 52 1 55 -16z m-628 -13 c0 -25 -23
-35 -35 -15 -10 16 2 40 20 40 9 0 15 -9 15 -25z m80 0 c0 -18 -5 -25 -20 -25
-15 0 -20 7 -20 25 0 18 5 25 20 25 15 0 20 -7 20 -25z m80 -1 c0 -33 -33 -30
-38 4 -3 17 2 22 17 22 16 0 21 -6 21 -26z m468 -91 c3 -23 2 -23 -107 -23
-101 0 -111 2 -111 18 0 10 3 22 7 26 4 4 52 5 107 4 96 -3 101 -4 104 -25z
m-1530 -30 c3 -32 2 -33 -37 -33 -39 0 -41 2 -41 29 0 31 8 37 49 36 22 0 26
-5 29 -32z m130 0 c3 -32 2 -33 -37 -33 -38 0 -41 2 -41 28 0 37 8 44 45 40
26 -3 30 -7 33 -35z m772 12 c0 -18 -5 -25 -20 -25 -20 0 -28 28 -13 43 15 16
33 6 33 -18z m80 0 c0 -18 -5 -25 -20 -25 -15 0 -20 7 -20 25 0 18 5 25 20 25
15 0 20 -7 20 -25z m80 -5 c0 -32 -26 -43 -36 -15 -9 21 3 45 21 45 10 0 15
-10 15 -30z m818 -92 c3 -28 3 -28 -53 -28 -58 0 -74 12 -61 46 4 11 18 14 58
12 49 -3 53 -5 56 -30z m170 0 c3 -28 3 -28 -57 -28 -57 0 -61 1 -61 23 0 34
8 38 65 35 46 -3 50 -5 53 -30z m-1148 -24 c0 -33 -33 -30 -38 4 -3 17 2 22
17 22 16 0 21 -6 21 -26z m80 1 c0 -18 -5 -25 -20 -25 -15 0 -20 7 -20 25 0
18 5 25 20 25 15 0 20 -7 20 -25z m82 0 c-5 -26 -8 -29 -27 -22 -8 4 -15 16
-15 27 0 16 5 21 23 18 16 -2 21 -9 19 -23z m-1077 -15 c0 -9 -11 -16 -27 -18
-23 -3 -28 1 -28 18 0 17 5 21 28 18 16 -2 27 -9 27 -18z m1355 -41 l0 -60
-37 3 c-36 3 -38 5 -41 39 -3 30 2 41 24 58 45 35 54 28 54 -40z m100 41 c13
-13 20 -33 20 -60 l0 -40 -40 0 -40 0 0 60 c0 53 2 60 20 60 11 0 29 -9 40
-20z m-1870 -45 c0 -18 -5 -25 -20 -25 -20 0 -28 28 -13 43 15 16 33 6 33 -18z
m88 2 c4 -20 -25 -34 -40 -19 -15 15 -1 44 19 40 10 -2 19 -11 21 -21z m1872
-17 c0 -11 -6 -20 -14 -20 -18 0 -29 16 -21 30 11 18 35 11 35 -10z m418 -12
c-3 -22 -8 -23 -100 -26 l-98 -3 0 26 0 25 101 0 c98 0 100 0 97 -22z m162 2
c0 -29 -24 -35 -61 -16 -18 9 -38 16 -46 16 -7 0 -13 5 -13 10 0 6 27 10 60
10 54 0 60 -2 60 -20z m-1043 -16 c3 -8 1 -20 -4 -25 -12 -12 -48 14 -39 29
10 17 36 15 43 -4z m-1499 -67 c3 -22 -1 -27 -17 -27 -15 0 -21 6 -21 23 0 46
33 49 38 4z m90 0 c3 -22 -1 -27 -17 -27 -17 0 -21 6 -21 31 0 24 4 30 18 27
10 -2 18 -14 20 -31z m1682 -48 l0 -60 -37 3 c-37 3 -38 4 -41 47 -5 61 2 71
43 71 l35 0 0 -61z m118 -1 l3 -58 -41 0 -40 0 0 61 0 60 38 -3 37 -3 3 -57z
m280 35 c3 -21 0 -23 -47 -23 -48 0 -51 2 -51 26 0 24 2 25 48 22 40 -3 47 -6
50 -25z m212 2 c0 -24 -2 -25 -64 -25 -65 0 -83 9 -72 35 4 11 23 15 71 15 63
0 65 -1 65 -25z m-2380 -100 c0 -18 -5 -25 -20 -25 -15 0 -20 7 -20 25 0 18 5
25 20 25 15 0 20 -7 20 -25z m90 5 c0 -24 -26 -38 -42 -22 -16 16 -2 42 22 42
13 0 20 -7 20 -20z m2098 -7 c3 -22 0 -23 -57 -23 -52 0 -61 3 -61 18 0 29 10
33 65 30 43 -3 50 -6 53 -25z m200 0 c3 -22 0 -23 -62 -23 -57 0 -66 2 -66 18
0 29 10 33 70 30 48 -3 55 -6 58 -25z m152 -3 c0 -17 -7 -20 -40 -20 -33 0
-40 3 -40 20 0 17 7 20 40 20 33 0 40 -3 40 -20z m-330 -95 c0 -24 -2 -25 -70
-25 -68 0 -70 1 -70 25 0 24 2 25 70 25 68 0 70 -1 70 -25z m158 -2 c3 -21 0
-23 -47 -23 -48 0 -51 2 -51 26 0 24 2 25 48 22 40 -3 47 -6 50 -25z m172 2
c0 -24 -3 -25 -60 -25 -52 0 -60 3 -60 18 0 28 9 32 67 32 50 0 53 -1 53 -25z
m-365 -100 c0 -16 -8 -21 -44 -23 -48 -4 -67 8 -57 33 4 12 17 15 53 13 40 -3
48 -6 48 -23z m-347 -329 c5 -23 -16 -46 -42 -46 -46 0 -62 48 -24 74 19 13
25 14 43 2 11 -7 21 -21 23 -30z"/>
<path d="M1840 4250 c0 -29 2 -30 45 -30 43 0 45 1 45 30 0 29 -2 30 -45 30
-43 0 -45 -1 -45 -30z"/>
<path d="M2020 4250 c0 -29 2 -30 45 -30 43 0 45 1 45 30 0 29 -2 30 -45 30
-43 0 -45 -1 -45 -30z"/>
<path d="M1520 4206 c0 -35 -4 -45 -20 -49 -11 -3 -23 -1 -26 4 -3 6 -11 5
-20 -2 -11 -9 -20 -8 -39 5 -29 19 -31 15 -9 -18 15 -24 5 -44 -16 -31 -5 3
-10 2 -10 -4 0 -5 6 -11 13 -14 9 -3 9 -7 -2 -20 -7 -9 -11 -23 -8 -31 7 -17
-13 -26 -54 -26 -19 0 -29 -5 -29 -15 0 -11 12 -15 45 -15 41 0 45 -2 45 -25
0 -18 5 -25 20 -25 45 0 111 -55 95 -80 -3 -5 -1 -11 5 -15 5 -3 10 -22 10
-41 0 -24 5 -34 15 -34 10 0 15 10 15 34 0 26 5 36 20 41 12 4 27 1 35 -5 12
-10 15 -9 15 4 0 22 9 20 38 -6 23 -21 25 -22 17 -3 -18 49 -18 55 5 55 17 0
20 3 12 13 -7 8 -9 29 -5 50 5 35 8 37 43 37 41 0 51 6 43 26 -3 9 -20 14 -45
14 -31 0 -39 3 -35 15 4 8 1 17 -4 21 -6 3 -8 17 -4 31 3 15 2 22 -4 19 -18
-12 -22 14 -5 39 17 27 5 35 -16 10 -14 -17 -40 -20 -40 -6 0 6 -16 7 -35 4
l-35 -6 0 47 c0 34 -4 46 -15 46 -11 0 -15 -12 -15 -44z"/>
<path d="M3110 4090 l0 -130 50 0 50 0 0 50 0 50 -35 0 -35 0 0 80 c0 64 -3
80 -15 80 -13 0 -15 -21 -15 -130z"/>
<path d="M1950 4160 c0 -47 2 -50 25 -50 23 0 25 3 25 50 0 47 -2 50 -25 50
-23 0 -25 -3 -25 -50z"/>
<path d="M3022 4058 c3 -79 6 -93 21 -96 15 -3 17 6 17 92 0 90 -1 96 -20 96
-20 0 -21 -5 -18 -92z"/>
<path d="M3960 4008 c0 -91 -1 -98 -25 -116 -22 -17 -25 -28 -25 -80 0 -53 3
-62 25 -76 23 -15 25 -22 25 -101 0 -92 12 -109 31 -45 15 48 45 55 55 13 8
-31 22 -53 35 -53 5 0 9 40 9 89 0 84 1 90 25 105 22 14 25 24 25 71 0 47 -3
57 -25 71 -24 16 -25 21 -25 115 0 55 -3 99 -6 99 -11 0 -33 -34 -34 -51 0 -9
-7 -22 -15 -29 -18 -15 -45 2 -45 29 0 10 -7 26 -15 37 -13 17 -14 10 -15 -78z
m98 -190 l-3 -83 -32 -3 -33 -3 0 85 0 86 35 0 36 0 -3 -82z"/>
<path d="M1920 3964 c0 -9 -9 -18 -20 -21 -24 -6 -27 -33 -4 -33 9 0 18 -9 21
-20 3 -11 9 -20 14 -20 5 0 9 9 9 20 0 13 7 20 20 20 11 0 20 7 20 15 0 8 -9
15 -20 15 -13 0 -20 7 -20 20 0 11 -4 20 -10 20 -5 0 -10 -7 -10 -16z"/>
<path d="M3797 3933 c-22 -41 -26 -88 -8 -88 18 0 46 94 33 107 -7 7 -16 0
-25 -19z"/>
<path d="M4215 3950 c-3 -6 -1 -27 6 -48 6 -20 13 -43 15 -49 2 -7 10 -13 19
-13 19 0 19 14 -2 73 -17 47 -26 56 -38 37z"/>
<path d="M1380 3901 c0 -5 9 -11 21 -14 20 -5 20 -7 4 -31 -20 -29 -11 -34 17
-9 17 15 19 15 31 -1 12 -16 14 -16 26 -2 9 11 10 16 2 16 -6 0 -29 11 -51 25
-43 27 -50 29 -50 16z"/>
<path d="M1118 3858 c-2 -25 -8 -34 -25 -36 -13 -2 -23 -7 -23 -12 0 -5 10
-10 23 -12 17 -2 23 -11 25 -35 2 -20 9 -33 17 -33 8 0 15 13 17 33 2 24 8 33
26 35 12 2 22 7 22 12 0 5 -10 10 -22 12 -18 2 -24 11 -26 36 -2 19 -9 32 -17
32 -8 0 -15 -13 -17 -32z"/>
<path d="M3775 3768 c22 -70 47 -109 62 -95 10 11 -35 112 -52 115 -14 3 -16
-1 -10 -20z"/>
<path d="M4230 3775 c0 -9 -9 -33 -20 -54 -18 -36 -18 -51 1 -51 9 0 42 60 53
98 6 18 4 22 -13 22 -12 0 -21 -6 -21 -15z"/>
<path d="M1782 3744 c-43 -19 -49 -37 -23 -73 12 -16 21 -32 21 -35 0 -3 -18
-6 -41 -6 -28 0 -39 -4 -37 -12 3 -8 29 -14 71 -16 56 -2 68 0 74 14 4 12 -2
24 -21 39 -37 29 -31 56 14 69 44 12 48 15 30 26 -20 13 -49 11 -88 -6z"/>
<path d="M930 3680 c0 -20 5 -30 15 -30 10 0 15 10 15 30 0 20 -5 30 -15 30
-10 0 -15 -10 -15 -30z"/>
<path d="M1200 3551 l0 -80 33 -3 32 -3 3 -187 2 -188 -30 0 -30 0 0 165 0
164 -30 16 c-62 32 -61 38 -58 -207 l3 -223 190 0 190 0 3 83 3 82 -40 0 c-39
0 -40 -1 -43 -37 -3 -33 -7 -38 -30 -41 l-28 -3 0 185 0 186 70 0 70 0 0 85 0
85 -155 0 -155 0 0 -79z m170 -1 c0 -13 -7 -20 -20 -20 -19 0 -27 20 -13 33
13 14 33 6 33 -13z m90 0 c0 -13 -7 -20 -20 -20 -13 0 -20 7 -20 20 0 13 7 20
20 20 13 0 20 -7 20 -20z"/>
<path d="M1020 3600 c0 -15 5 -20 18 -18 9 2 17 10 17 18 0 8 -8 16 -17 18
-13 2 -18 -3 -18 -18z"/>
<path d="M4340 3560 c0 -20 5 -30 15 -30 10 0 15 10 15 30 0 20 -5 30 -15 30
-10 0 -15 -10 -15 -30z"/>
<path d="M1630 3456 c0 -63 3 -121 6 -130 6 -17 34 -22 34 -7 0 17 34 22 46 7
13 -18 34 -21 34 -6 0 6 11 10 25 10 14 0 25 -4 25 -10 0 -5 7 -10 15 -10 8 0
15 4 15 10 0 5 11 12 25 16 24 6 26 10 23 58 l-3 51 -103 3 c-76 2 -102 6 -99
15 2 8 32 13 85 15 64 2 82 6 82 17 0 11 -14 15 -57 15 l-58 1 35 29 34 30
-82 0 -82 0 0 -114z"/>
<path d="M4230 3500 c0 -23 4 -30 20 -30 16 0 20 7 20 30 0 23 -4 30 -20 30
-16 0 -20 -7 -20 -30z"/>
<path d="M4000 3500 c0 -5 14 -10 30 -10 17 0 30 5 30 10 0 6 -13 10 -30 10
-16 0 -30 -4 -30 -10z"/>
<path d="M807 3494 c-4 -4 -7 -31 -7 -60 l0 -53 -37 -3 c-38 -3 -38 -3 -41
-53 -2 -33 -10 -56 -23 -68 -17 -16 -19 -32 -19 -137 l0 -120 40 0 40 0 0 160
c0 153 1 160 20 160 19 0 20 -7 20 -160 0 -153 1 -160 20 -160 19 0 20 7 20
133 0 72 4 139 10 147 18 28 30 -38 30 -161 0 -104 2 -120 16 -117 13 3 16 26
17 158 2 148 3 155 22 155 19 0 20 -8 23 -157 l3 -158 39 0 40 0 0 118 0 118
-30 29 c-24 23 -30 37 -30 72 0 42 0 43 -35 43 l-35 0 0 54 c0 64 -11 76 -35
39 l-18 -27 -22 27 c-11 15 -24 24 -28 21z"/>
<path d="M1430 3315 l0 -105 40 0 40 0 0 105 0 105 -40 0 -40 0 0 -105z"/>
<path d="M4470 3375 c0 -32 4 -45 14 -45 10 0 16 13 18 38 2 29 7 37 23 37 16
0 21 -8 23 -37 2 -25 8 -38 18 -38 10 0 14 13 14 45 l0 45 -55 0 -55 0 0 -45z"/>
<path d="M4405 3350 l-30 -8 33 -1 c17 0 32 4 32 9 0 6 -1 9 -2 9 -2 -1 -16
-5 -33 -9z"/>
<path d="M4410 3280 c0 -16 7 -20 31 -20 24 0 30 -4 27 -17 -2 -11 -14 -19
-31 -21 -26 -3 -27 -5 -27 -68 l0 -64 105 0 105 0 0 105 0 105 -105 0 c-98 0
-105 -1 -105 -20z m180 -41 c0 -16 -5 -20 -27 -17 -17 2 -29 10 -31 21 -3 13
3 17 27 17 25 0 31 -4 31 -21z m-35 -79 c0 -11 -15 -16 -62 -18 -48 -2 -63 0
-63 11 0 24 12 28 70 25 41 -2 55 -7 55 -18z"/>
<path d="M2505 3178 c-49 -27 -142 -77 -205 -110 -184 -97 -222 -120 -213
-128 4 -5 64 -38 133 -74 69 -36 188 -99 265 -140 l140 -74 75 41 c41 23 158
87 260 143 102 55 184 105 183 109 -2 14 -509 285 -532 284 -9 0 -56 -23 -106
-51z m239 -167 c36 -23 46 -39 46 -75 0 -65 -148 -108 -259 -76 -74 21 -107
94 -62 134 55 50 206 59 275 17z"/>
<path d="M4410 2860 l0 -190 190 0 190 0 0 40 0 40 -40 0 -40 0 0 40 c0 34 -4
42 -25 50 -19 7 -25 17 -25 39 0 20 -6 30 -20 34 -17 4 -20 14 -20 71 l0 66
-105 0 -105 0 0 -190z m130 120 c0 -5 -7 -10 -16 -10 -8 0 -12 5 -9 10 3 6 10
10 16 10 5 0 9 -4 9 -10z m78 -93 c2 -11 -3 -17 -16 -17 -24 0 -32 8 -25 26 7
20 37 13 41 -9z m-80 -129 c-2 -13 -7 -23 -13 -23 -5 0 -11 10 -13 23 -2 15 2
22 13 22 11 0 15 -7 13 -22z"/>
<path d="M1120 2615 l0 -345 195 0 195 0 0 290 0 289 -152 3 c-150 3 -153 3
-156 26 l-3 22 155 0 156 0 0 30 0 30 -195 0 -195 0 0 -345z m310 165 c0 -19
-7 -20 -115 -20 -108 0 -115 1 -115 20 0 19 7 20 115 20 108 0 115 -1 115 -20z
m-167 -131 c36 -41 49 -50 66 -44 17 5 21 14 21 52 0 60 24 53 28 -9 2 -37 8
-47 27 -56 14 -7 25 -16 25 -20 0 -5 12 -21 26 -36 l27 -26 -42 -40 c-22 -22
-46 -40 -51 -40 -6 0 -10 -10 -10 -21 0 -17 3 -19 14 -10 10 8 16 9 21 1 9
-15 -5 -32 -21 -26 -10 4 -14 -4 -14 -29 0 -24 -5 -35 -15 -35 -12 0 -15 13
-15 55 0 72 -14 72 -82 -5 -29 -33 -58 -60 -65 -60 -20 0 -16 10 26 60 l39 46
-27 41 c-22 36 -32 42 -66 45 -58 4 -49 22 13 26 39 2 54 7 58 20 3 9 9 25 14
34 7 12 1 27 -21 55 -44 55 -53 73 -35 73 8 0 35 -23 59 -51z m167 15 c0 -31
-23 -28 -28 4 -2 15 2 22 12 22 11 0 16 -9 16 -26z"/>
<path d="M1384 2549 c-10 -16 8 -28 31 -19 19 7 19 7 -2 18 -16 9 -24 9 -29 1z"/>
<path d="M1322 2539 c2 -6 8 -10 13 -10 5 0 11 4 13 10 2 6 -4 11 -13 11 -9 0
-15 -5 -13 -11z"/>
<path d="M1322 2478 c6 -18 28 -21 28 -4 0 9 -7 16 -16 16 -9 0 -14 -5 -12
-12z"/>
<path d="M1380 2475 c0 -13 4 -14 20 -5 11 6 20 13 20 15 0 3 -9 5 -20 5 -11
0 -20 -7 -20 -15z"/>
<path d="M615 2883 c-9 -20 -18 -47 -21 -59 -3 -12 -43 -48 -95 -85 l-89 -64
0 -202 0 -203 35 0 34 0 3 122 c3 107 5 123 20 126 16 3 18 -10 20 -120 3
-119 4 -123 26 -126 22 -3 22 -2 22 122 0 119 1 126 20 126 19 0 20 -7 20
-125 l0 -125 35 0 35 0 0 80 0 80 100 0 100 0 0 -80 0 -80 35 0 34 0 3 123 c3
100 6 122 18 122 12 0 15 -22 18 -122 l3 -123 24 0 25 0 0 325 0 325 -205 0
-205 0 -15 -37z m135 -77 c0 -30 -14 -40 -46 -32 -14 4 -24 14 -24 25 0 24 9
31 42 31 23 0 28 -4 28 -24z m130 0 c0 -14 -7 -25 -17 -28 -29 -8 -43 2 -43
28 0 20 5 24 30 24 25 0 30 -4 30 -24z m-360 -211 c0 -8 -6 -15 -14 -15 -17 0
-28 14 -19 24 12 12 33 6 33 -9z m90 0 c0 -8 -9 -15 -20 -15 -11 0 -20 7 -20
15 0 8 9 15 20 15 11 0 20 -7 20 -15z m128 -2 c-4 -20 -27 -27 -47 -14 -19 12
-4 31 25 31 19 0 25 -5 22 -17z m140 0 c-2 -12 -12 -18 -28 -18 -16 0 -26 6
-28 18 -3 13 3 17 28 17 25 0 31 -4 28 -17z m112 3 c0 -15 -24 -28 -34 -19
-13 14 -5 33 14 33 11 0 20 -6 20 -14z m-270 -96 c0 -21 -24 -28 -35 -10 -8
14 3 30 21 30 8 0 14 -9 14 -20z m160 0 c0 -18 -7 -20 -60 -20 -53 0 -60 2
-60 20 0 18 7 20 60 20 53 0 60 -2 60 -20z"/>
<path d="M2010 2537 c0 -389 -9 -349 90 -405 71 -39 493 -262 497 -262 2 0 3
152 3 338 0 338 0 339 -22 359 -13 12 -126 76 -253 143 -126 67 -249 133 -272
146 l-43 25 0 -344z m173 145 c44 -48 40 -122 -7 -122 -35 0 -66 30 -72 71
-10 58 42 92 79 51z m319 -151 c58 -64 56 -147 -4 -180 -55 -31 -136 36 -145
122 -5 40 -2 49 22 72 22 23 32 26 63 22 23 -4 47 -17 64 -36z m-208 -81 c54
-20 86 -119 50 -154 -22 -23 -47 -20 -78 9 -48 44 -59 102 -26 135 23 23 21
23 54 10z m-126 -80 c39 -24 74 -94 65 -131 -21 -86 -119 -73 -157 21 -21 53
-20 72 5 104 25 31 43 33 87 6z m317 -216 c26 -29 32 -63 15 -95 -23 -42 -90
-8 -105 53 -16 63 44 91 90 42z"/>
<path d="M3155 2842 c-27 -16 -141 -80 -252 -142 -137 -76 -205 -120 -209
-134 -7 -21 -12 -686 -6 -686 11 0 491 277 510 293 22 20 22 21 22 359 0 186
-3 338 -7 338 -5 0 -30 -13 -58 -28z m-249 -367 c15 -24 15 -28 -1 -70 -9 -25
-26 -52 -38 -60 -82 -57 -136 48 -63 121 42 42 78 45 102 9z m216 -52 c30 -27
24 -79 -16 -119 -57 -57 -106 -42 -106 31 1 75 76 130 122 88z"/>
<path d="M3691 2586 c-8 -9 -11 -61 -9 -162 l3 -149 25 0 c24 0 25 3 28 70 3
68 4 71 32 82 17 6 34 23 40 38 12 32 13 105 1 124 -16 25 -31 0 -31 -53 0
-48 -12 -76 -32 -76 -4 0 -8 23 -8 51 0 74 -22 108 -49 75z"/>
<path d="M3910 2570 c0 -11 7 -20 15 -20 8 0 15 9 15 20 0 11 -7 20 -15 20 -8
0 -15 -9 -15 -20z"/>
<path d="M4321 2579 c-14 -5 -69 -38 -122 -72 -91 -57 -98 -65 -101 -97 -3
-30 -7 -36 -33 -40 -25 -5 -29 -10 -27 -30 4 -34 47 -70 83 -70 25 0 29 3 24
19 -9 29 14 69 47 80 55 19 107 -23 94 -75 l-6 -24 165 0 c158 0 166 1 160 19
-9 29 14 69 47 80 55 19 109 -28 93 -79 -5 -16 -2 -20 18 -20 42 0 62 46 46
105 -10 37 -47 68 -93 79 -16 4 -49 21 -72 38 -42 30 -79 33 -68 5 7 -20 -37
-39 -82 -35 -37 3 -39 5 -42 41 -3 33 -1 37 20 37 14 0 33 -7 44 -15 25 -19
31 -19 44 5 9 17 6 23 -22 40 -26 16 -50 20 -113 19 -44 0 -91 -5 -104 -10z
m89 -79 l0 -40 -75 0 c-41 0 -75 4 -75 8 0 10 38 45 65 60 11 6 35 12 53 12
31 0 32 -1 32 -40z"/>
<path d="M4660 2571 c0 -25 19 -38 31 -20 12 19 6 33 -14 37 -11 2 -17 -3 -17
-17z"/>
<path d="M4740 2565 c0 -16 6 -25 15 -25 9 0 15 9 15 25 0 16 -6 25 -15 25 -9
0 -15 -9 -15 -25z"/>
<path d="M3867 2434 c-4 -4 -7 -20 -7 -36 0 -33 25 -39 35 -7 7 22 -15 55 -28
43z"/>
<path d="M3940 2405 c0 -20 4 -26 18 -23 9 2 17 12 17 23 0 11 -8 21 -17 23
-14 3 -18 -3 -18 -23z"/>
<path d="M1690 2330 l0 -60 35 0 35 0 0 60 0 60 -35 0 -35 0 0 -60z"/>
<path d="M4663 2332 c-16 -12 -22 -39 -10 -51 14 -14 44 -14 52 -1 16 25 -18
67 -42 52z"/>
<path d="M4190 2300 c0 -28 3 -31 28 -28 21 2 27 8 27 28 0 20 -6 26 -27 28
-25 3 -28 0 -28 -28z"/>
<path d="M4657 2200 c-38 -45 -36 -76 5 -82 18 -3 40 -3 50 0 26 6 23 55 -5
88 l-23 27 -27 -33z"/>
<path d="M3393 2192 c-81 -3 -83 -3 -89 -30 -10 -42 -41 -70 -134 -120 -47
-25 -177 -97 -290 -161 -179 -101 -211 -115 -250 -115 -38 1 -75 17 -230 102
-102 55 -243 131 -315 169 -125 67 -143 82 -159 136 -5 16 -27 17 -281 17
l-275 0 0 -160 0 -160 360 0 360 0 0 35 c0 42 13 44 61 12 28 -19 35 -30 37
-65 l3 -42 49 0 c63 0 128 -29 186 -82 65 -60 88 -108 88 -188 0 -76 -23 -129
-79 -181 -19 -18 -35 -38 -35 -44 0 -5 25 -58 56 -117 l55 -108 100 0 100 0
-7 38 c-4 20 -31 153 -60 295 -30 142 -54 264 -54 272 0 11 13 15 54 15 48 0
54 -3 59 -22 3 -13 20 -97 37 -187 18 -91 35 -174 40 -185 5 -15 14 16 30 104
12 69 32 175 44 235 l22 110 43 3 c24 2 49 1 56 -1 9 -4 -3 -80 -46 -299 l-58
-293 -1 -552 0 -553 35 0 34 0 3 82 c3 70 6 83 21 86 15 3 17 -6 17 -82 l0
-86 40 0 40 0 0 115 0 115 45 0 46 0 -3 112 c-2 93 -6 113 -18 113 -11 0 -16
-14 -18 -52 -3 -49 -5 -53 -28 -53 l-24 0 0 740 0 739 30 16 c38 20 38 20 42
-12 l3 -28 125 0 125 0 3 53 c4 70 26 65 30 -6 l3 -52 472 0 472 0 52 24 c120
56 124 213 6 272 -30 15 -64 19 -168 21 -249 5 -781 8 -862 5z m22 -82 c0 -34
-5 -55 -12 -57 -10 -4 -13 12 -13 57 0 45 3 61 13 58 7 -3 12 -24 12 -58z
m515 -76 c0 -8 -9 -14 -20 -14 -19 0 -27 19 -14 33 10 9 34 -4 34 -19z m478
-1 c3 -21 -1 -23 -37 -23 -43 0 -55 9 -45 35 5 12 16 15 43 13 29 -2 37 -8 39
-25z m-2778 -3 c0 -18 -7 -20 -70 -20 -63 0 -70 2 -70 20 0 18 7 20 70 20 63
0 70 -2 70 -20z m200 0 c0 -18 -7 -20 -65 -20 -58 0 -65 2 -65 20 0 18 7 20
65 20 58 0 65 -2 65 -20z m1870 -1 c0 -18 -5 -20 -47 -17 -36 2 -49 7 -51 21
-3 14 4 17 47 17 45 0 51 -3 51 -21z m78 4 c-5 -25 -28 -28 -28 -4 0 12 6 21
16 21 9 0 14 -7 12 -17z m80 0 c-5 -26 -38 -29 -38 -4 0 15 6 21 21 21 14 0
19 -5 17 -17z m142 -3 c0 -13 -7 -20 -20 -20 -13 0 -20 7 -20 20 0 13 7 20 20
20 13 0 20 -7 20 -20z m260 0 c0 -18 -7 -20 -79 -20 -76 0 -100 8 -86 30 3 6
42 10 86 10 72 0 79 -2 79 -20z m-2222 -93 c2 -28 -1 -37 -12 -37 -12 0 -16
11 -16 41 0 52 24 48 28 -4z m1477 7 c0 -19 -5 -29 -15 -29 -16 0 -25 28 -16
51 10 25 31 10 31 -22z m-535 -855 c0 -24 -4 -30 -17 -27 -22 4 -30 47 -12 59
20 12 29 1 29 -32z m0 -204 c0 -42 -3 -55 -15 -55 -12 0 -15 13 -15 55 0 42 3
55 15 55 12 0 15 -13 15 -55z m0 -233 c0 -52 -7 -67 -24 -53 -16 14 -8 101 10
101 10 0 14 -14 14 -48z m-2 -231 c3 -46 1 -52 -15 -49 -17 3 -20 27 -14 101
1 5 7 7 14 5 7 -3 13 -26 15 -57z"/>
<path d="M555 2180 c-16 -4 -40 -12 -52 -18 -24 -13 -63 -63 -63 -81 0 -17 50
-13 57 4 3 9 19 23 35 31 78 40 170 -39 137 -117 -23 -58 -98 -76 -145 -36
-32 28 -26 44 21 53 19 3 33 10 30 14 -7 12 -162 12 -170 0 -3 -6 3 -10 14
-10 13 0 21 -7 21 -17 0 -26 33 -72 66 -94 59 -39 159 -16 199 45 68 104 -30
252 -150 226z"/>
<path d="M935 2163 c-14 -15 -25 -31 -25 -36 0 -13 -64 -47 -87 -47 -22 0 -23
-3 -23 -100 l0 -99 33 -6 c17 -3 126 -5 242 -3 l210 3 3 158 3 157 -165 0
-165 0 -26 -27z m193 -80 l3 -63 -81 0 -80 0 0 65 0 66 78 -3 77 -3 3 -62z
m90 -1 c3 -61 2 -62 -23 -62 -24 0 -25 2 -25 58 0 63 5 74 30 70 11 -2 16 -19
18 -66z m-337 -112 c10 -6 19 -19 19 -30 0 -22 -25 -50 -45 -50 -18 0 -45 27
-45 45 0 16 27 45 41 45 6 0 19 -5 30 -10z m249 -30 l0 -40 -80 0 -80 0 0 40
0 40 80 0 80 0 0 -40z m134 24 c9 -8 16 -22 16 -29 0 -18 -27 -45 -45 -45 -18
0 -45 27 -45 45 0 18 27 45 45 45 7 0 21 -7 29 -16z"/>
<path d="M544 2085 c-18 -14 -17 -15 8 -4 57 25 107 -49 57 -85 -12 -8 -29
-12 -38 -9 -12 4 -13 3 -2 -5 20 -14 51 -2 63 24 15 32 3 69 -27 82 -33 15
-37 15 -61 -3z"/>
<path d="M4652 2042 c-32 -27 -33 -29 -30 -97 l3 -70 70 0 70 0 3 69 c3 63 1
71 -24 97 -34 36 -50 36 -92 1z m68 -87 c0 -32 -2 -35 -30 -35 -28 0 -30 3
-30 35 0 32 2 35 30 35 28 0 30 -3 30 -35z"/>
<path d="M412 1788 c3 -9 36 -14 106 -16 86 -2 102 0 102 13 0 12 -17 15 -106
15 -80 0 -105 -3 -102 -12z"/>
<path d="M4510 1780 c0 -11 7 -20 15 -20 8 0 15 9 15 20 0 11 -7 20 -15 20 -8
0 -15 -9 -15 -20z"/>
<path d="M4630 1780 c0 -16 7 -20 30 -20 23 0 30 4 30 20 0 16 -7 20 -30 20
-23 0 -30 -4 -30 -20z"/>
<path d="M700 1651 l0 -140 -27 -13 c-40 -19 -41 -51 -4 -78 45 -31 42 -72 -8
-119 -55 -51 -65 -74 -51 -117 18 -55 70 -87 148 -92 l66 -5 -32 41 c-18 22
-32 44 -32 50 0 5 16 22 35 37 l36 27 40 -37 c45 -41 77 -55 121 -55 86 0 141
98 85 154 -13 13 -48 31 -78 41 -146 48 -200 99 -207 194 -14 195 235 278 378
126 l24 -26 -32 -32 c-28 -27 -35 -30 -50 -19 -37 27 -98 52 -128 52 -46 0
-84 -34 -84 -75 0 -44 38 -76 116 -98 78 -23 130 -54 168 -100 28 -35 31 -46
31 -107 0 -61 -4 -73 -32 -114 -18 -26 -33 -49 -33 -52 0 -3 30 -4 68 -2 l67
3 3 348 2 347 -295 0 -295 0 0 -139z"/>
<path d="M1370 1440 l0 -350 87 0 87 0 -36 38 c-73 75 -73 76 -76 385 l-3 277
-30 0 -29 0 0 -350z"/>
<path d="M1552 1516 c3 -259 4 -276 24 -303 11 -15 37 -36 58 -47 32 -16 44
-17 75 -7 20 6 48 22 62 37 l24 26 3 284 3 284 -126 0 -126 0 3 -274z"/>
<path d="M1918 1508 c-3 -267 -4 -285 -24 -323 -12 -22 -31 -49 -43 -59 -12
-11 -21 -23 -21 -28 0 -4 41 -8 90 -8 l90 0 0 350 0 350 -44 0 -45 0 -3 -282z"/>
<path d="M3132 1443 l3 -348 58 -3 57 -3 0 351 0 350 -60 0 -60 0 2 -347z"/>
<path d="M3360 1440 l0 -350 120 0 c66 0 120 3 120 6 0 4 -29 145 -64 313 -35
168 -67 323 -70 344 -7 37 -7 37 -56 37 l-50 0 0 -350z"/>
<path d="M3576 1773 c2 -10 22 -110 44 -223 22 -113 44 -213 48 -224 5 -12 23
58 52 205 24 123 45 232 48 242 4 15 -5 17 -96 17 -90 0 -100 -2 -96 -17z"/>
<path d="M3880 1783 c0 -15 -60 -302 -100 -477 -22 -98 -40 -187 -40 -197 0
-17 9 -19 95 -19 l95 0 0 350 0 350 -25 0 c-14 0 -25 -3 -25 -7z"/>
<path d="M4360 1745 l0 -45 -160 0 -160 0 0 -95 0 -94 143 -3 142 -3 0 -50 0
-50 -142 -3 -143 -3 0 -119 0 -120 159 0 160 0 3 -32 c3 -29 7 -33 35 -36 72
-7 143 56 143 127 0 28 -9 42 -45 75 -57 53 -62 93 -15 128 45 33 36 64 -22
82 -16 5 -18 21 -18 146 l0 140 -40 0 -40 0 0 -45z"/>
<path d="M432 1718 c3 -9 34 -14 96 -16 77 -2 92 0 92 13 0 12 -16 15 -96 15
-72 0 -95 -3 -92 -12z"/>
<path d="M2120 1555 l0 -145 95 0 c131 0 161 17 186 103 11 39 -5 104 -34 135
-38 42 -71 52 -162 52 l-85 0 0 -145z"/>
<path d="M4532 1670 c0 -14 2 -19 5 -12 2 6 2 18 0 25 -3 6 -5 1 -5 -13z"/>
<path d="M4634 1675 c-9 -22 9 -37 37 -33 16 2 24 10 24 23 0 26 -52 35 -61
10z"/>
<path d="M495 1634 c24 -18 126 -16 133 4 3 9 -16 12 -75 12 -72 -1 -76 -2
-58 -16z"/>
<path d="M560 1560 c0 -16 7 -20 30 -20 23 0 30 4 30 20 0 16 -7 20 -30 20
-23 0 -30 -4 -30 -20z"/>
<path d="M4630 1560 c0 -16 7 -20 30 -20 23 0 30 4 30 20 0 16 -7 20 -30 20
-23 0 -30 -4 -30 -20z"/>
<path d="M580 1375 c-11 -13 -11 -19 3 -32 21 -21 49 -9 45 19 -4 28 -30 35
-48 13z"/>
<path d="M4520 1375 c-11 -13 -11 -19 3 -32 21 -21 49 -9 45 19 -4 28 -30 35
-48 13z"/>
<path d="M2120 1195 l0 -105 130 0 130 0 -52 105 -53 105 -77 0 -78 0 0 -105z"/>
<path d="M3970 1006 c0 -63 -3 -75 -21 -87 -20 -14 -20 -15 -4 -63 16 -48 16
-116 0 -238 -6 -41 -5 -48 10 -48 10 0 24 8 31 18 13 16 15 16 28 0 7 -10 21
-18 30 -18 20 0 20 -1 0 46 -15 36 -15 49 2 160 4 31 1 49 -11 68 -15 22 -16
31 -6 52 16 35 14 81 -4 88 -9 3 -15 18 -15 35 0 39 -9 61 -26 61 -11 0 -14
-17 -14 -74z"/>
<path d="M1887 1004 c-4 -4 -7 -20 -7 -36 0 -25 4 -28 31 -28 28 0 30 2 27 33
-2 23 -8 33 -23 35 -12 2 -24 0 -28 -4z"/>
<path d="M2134 991 c-136 -62 -118 -242 29 -286 40 -12 111 -15 344 -15 l294
0 -3 158 -3 157 -310 2 c-284 3 -313 1 -351 -16z m66 -129 c0 -83 -5 -99 -27
-81 -17 15 -18 130 -1 147 23 23 28 11 28 -66z m60 59 c16 -31 12 -117 -6
-135 -8 -9 -17 -16 -20 -16 -2 0 -4 38 -4 85 0 84 9 104 30 66z m310 -16 c0
-24 -2 -25 -65 -25 -63 0 -65 1 -65 25 0 24 2 25 65 25 63 0 65 -1 65 -25z
m-175 -4 c3 -6 -3 -15 -14 -20 -27 -15 -31 -14 -31 9 0 21 33 29 45 11z m245
-6 c0 -8 -7 -15 -15 -15 -8 0 -15 7 -15 15 0 8 7 15 15 15 8 0 15 -7 15 -15z
m-245 -75 c0 -8 -10 -16 -22 -18 -22 -3 -32 16 -16 32 12 11 38 2 38 -14z
m175 -5 c0 -24 -2 -25 -65 -25 -63 0 -65 1 -65 25 0 24 2 25 65 25 63 0 65 -1
65 -25z m70 5 c0 -11 -7 -20 -15 -20 -8 0 -15 9 -15 20 0 11 7 20 15 20 8 0
15 -9 15 -20z"/>
<path d="M3134 996 c-3 -8 -4 -27 -2 -43 l3 -28 188 -3 187 -2 0 25 c0 14 5
25 10 25 6 0 10 9 10 20 0 19 -7 20 -195 20 -160 0 -197 -3 -201 -14z"/>
<path d="M1105 970 c-16 -16 -37 -30 -47 -30 -12 0 -18 -8 -18 -24 0 -18 -6
-25 -22 -28 -18 -2 -24 -10 -26 -40 -3 -33 0 -37 31 -47 19 -7 45 -23 57 -36
20 -22 32 -25 87 -25 61 0 63 -1 63 -25 0 -23 -4 -25 -45 -25 -41 0 -45 -2
-45 -25 0 -24 2 -25 65 -25 63 0 65 -1 65 -26 0 -15 12 -38 29 -55 27 -26 36
-29 95 -29 l65 0 3 -72 c3 -71 4 -73 30 -76 l27 -3 3 98 c3 83 6 98 20 101 16
3 18 -10 20 -125 l3 -128 28 -3 27 -3 0 105 0 106 60 0 c55 0 62 3 94 35 20
19 42 35 51 35 11 0 15 11 15 45 l0 45 -250 0 -250 0 0 25 0 25 253 0 c245 0
255 1 273 21 10 12 31 27 46 35 24 12 28 21 28 54 l0 40 -416 0 -415 0 3 23 3
22 256 0 256 0 -21 32 -21 33 -226 0 -225 0 -29 -30z m685 -160 c0 -20 -7 -20
-320 -20 -313 0 -320 0 -320 20 0 20 7 20 320 20 313 0 320 0 320 -20z"/>
<path d="M4130 859 c0 -124 5 -136 35 -78 9 16 21 29 29 29 28 0 46 36 46 93
0 44 -3 57 -15 57 -11 0 -15 -12 -15 -50 0 -38 -4 -52 -19 -59 -27 -15 -31 -5
-31 66 0 49 -3 63 -15 63 -13 0 -15 -20 -15 -121z"/>
<path d="M3707 953 c-4 -3 -7 -19 -7 -34 0 -20 -9 -32 -34 -47 -19 -11 -42
-34 -51 -51 -13 -26 -22 -31 -50 -31 -19 0 -35 -4 -35 -10 0 -5 15 -10 34 -10
27 0 39 -7 61 -36 15 -19 37 -39 50 -44 17 -6 25 -18 27 -41 4 -46 28 -50 28
-5 0 28 6 38 29 52 16 10 34 28 40 40 7 17 20 24 47 26 51 4 56 26 7 30 -30 2
-41 9 -51 30 -7 15 -26 37 -42 48 -23 17 -30 29 -30 56 0 32 -8 42 -23 27z"/>
<path d="M3137 863 c-4 -3 -7 -33 -7 -65 l0 -58 60 0 c47 0 60 3 60 15 0 8 5
15 10 15 6 0 10 11 10 25 0 25 1 25 83 25 46 0 86 3 89 6 3 3 4 14 1 25 -5 17
-15 19 -115 19 -71 0 -107 -4 -103 -10 10 -15 -5 -50 -20 -50 -21 0 -37 34
-23 48 9 9 6 12 -13 12 -14 0 -29 -3 -32 -7z"/>
<path d="M3309 653 c-28 -26 -59 -64 -70 -85 -23 -46 -25 -106 -4 -115 20 -7
55 24 55 49 0 10 6 18 14 18 15 0 97 84 115 118 19 35 5 62 -30 62 -22 0 -44
-13 -80 -47z"/>
<path d="M1950 649 c0 -38 1 -40 28 -37 23 3 27 8 30 41 3 35 2 37 -27 37 -30
0 -31 -2 -31 -41z"/>
<path d="M3470 672 c0 -22 121 -135 158 -146 12 -4 22 -5 22 -3 0 3 -40 42
-90 87 -69 63 -90 78 -90 62z"/>
<path d="M3396 556 c-25 -29 -46 -58 -46 -63 0 -10 85 -93 95 -93 10 0 96 83
107 103 8 16 3 27 -33 63 -24 24 -51 44 -60 44 -10 0 -38 -24 -63 -54z"/>
<path d="M2124 566 c-9 -22 0 -69 13 -73 15 -5 27 38 18 66 -7 24 -23 27 -31
7z"/>
<path d="M2348 548 l-23 -23 80 -2 c223 -7 385 -7 385 0 0 4 -9 16 -20 27 -19
19 -33 20 -210 20 -184 0 -191 -1 -212 -22z"/>
<path d="M3787 553 c-4 -3 -7 -17 -7 -30 0 -18 5 -23 25 -23 21 0 25 5 25 30
0 22 -5 30 -18 30 -10 0 -22 -3 -25 -7z"/>
<path d="M2060 517 c0 -29 53 -97 66 -85 9 9 -24 73 -48 95 -17 15 -18 14 -18
-10z"/>
<path d="M2199 524 c-45 -54 -64 -109 -34 -98 22 9 57 71 53 95 -3 21 -3 21
-19 3z"/>
<path d="M1874 495 c-9 -14 -24 -25 -34 -25 -26 0 -70 -39 -70 -63 0 -11 -8
-30 -19 -41 -31 -34 -34 -60 -10 -89 21 -28 63 -36 97 -18 9 5 25 12 34 15 37
11 30 106 -10 121 -24 9 -35 -10 -20 -34 11 -19 11 -23 -4 -32 -10 -6 -18 -16
-18 -23 0 -19 -30 -29 -46 -15 -19 16 -18 26 6 46 11 10 20 29 20 44 0 33 32
63 58 55 54 -17 90 -113 62 -165 -9 -17 -9 -26 1 -37 6 -8 15 -14 19 -14 17 0
32 73 26 120 -4 29 -2 51 4 55 18 11 12 90 -8 108 -28 25 -69 21 -88 -8z m75
-19 c9 -11 10 -20 1 -35 -9 -18 -13 -19 -30 -8 -20 12 -26 37 -13 50 11 11 30
8 42 -7z"/>
<path d="M3548 448 c-61 -56 -98 -113 -98 -152 0 -42 16 -56 61 -56 48 0 113
48 153 113 35 56 37 94 6 119 -36 29 -70 23 -122 -24z"/>
<path d="M2342 458 c-21 -21 -14 -38 15 -38 l28 0 -28 -25 c-27 -25 -27 -28
-27 -149 0 -110 2 -126 21 -150 l20 -26 188 0 c242 0 231 -8 231 175 0 129 0
129 -27 152 l-28 22 26 1 c35 0 42 10 22 32 -15 16 -35 18 -223 18 -147 0
-209 -3 -218 -12z m266 -82 c55 -28 77 -63 77 -119 0 -138 -174 -191 -245 -74
-68 110 55 252 168 193z"/>
<path d="M2513 340 c-29 -12 -43 -40 -43 -89 0 -45 15 -63 25 -29 11 40 38 98
45 98 6 0 69 -29 78 -35 3 -2 -28 -86 -34 -94 -2 -2 -17 2 -34 9 -24 10 -33
10 -46 -1 -14 -12 -14 -14 2 -26 29 -21 82 -16 109 12 70 69 -12 193 -102 155z"/>
<path d="M3292 437 l-22 -24 67 -56 c70 -59 83 -60 83 -5 0 19 -13 37 -49 67
-27 23 -51 41 -53 41 -3 0 -14 -11 -26 -23z"/>
<path d="M2060 413 c0 -12 45 -73 58 -78 8 -3 12 6 12 25 0 23 -7 33 -30 45
-32 17 -40 18 -40 8z"/>
<path d="M2178 399 c-20 -15 -28 -30 -28 -51 0 -31 0 -31 21 -12 19 17 49 65
49 79 0 10 -15 4 -42 -16z"/>
<path d="M2060 310 c0 -6 16 -27 35 -48 l34 -37 1 32 c0 22 -7 37 -22 47 -26
18 -48 21 -48 6z"/>
<path d="M2176 299 c-25 -19 -37 -69 -17 -69 8 0 46 46 65 78 12 19 -18 14
-48 -9z"/>
<path d="M3212 264 c-33 -22 -31 -80 3 -96 19 -8 31 -8 50 0 35 16 35 73 0 96
-30 19 -26 19 -53 0z"/>
<path d="M1855 220 c-10 -17 4 -48 25 -55 21 -7 40 1 40 15 0 15 -58 51 -65
40z"/>
<path d="M2010 160 c0 -20 5 -21 117 -18 103 3 118 5 121 21 3 15 -8 17 -117
17 -115 0 -121 -1 -121 -20z"/>
</g>
</svg>
